<svg xmlns="http://www.w3.org/2000/svg" viewBox="0 0 427.922 427.922" width="512" height="512" enable-background="new 0 0 427.922 427.922"><g fill="#f1cdb3"><path d="M427.345 139.789l-26.06-62.542c-.902-2.167-2.769-3.786-5.041-4.375l-31.323-8.121c-91.706-23.776-210.218-23.775-301.92 0l-31.324 8.121c-2.272.589-4.139 2.208-5.041 4.375l-26.059 62.542c-.718 1.722-.768 3.65-.141 5.407l10.423 29.186c1.252 3.505 4.882 5.563 8.534 4.832l99.025-19.805c3.05-.61 5.406-3.039 5.925-6.105l8.575-50.781c47.199-11.86 114.886-11.86 162.083 0l8.576 50.782c.519 3.067 2.875 5.495 5.925 6.105l99.024 19.805c.494.099.987.147 1.475.147 3.114 0 5.977-1.948 7.06-4.979l10.424-29.186c.627-1.758.577-3.686-.14-5.408zm-404.538 23.446l-5.35-14.981 95.913-20.047-2.956 17.507-87.607 17.521zm101.527-73.962c-2.81.775-4.915 3.107-5.4 5.981l-2.882 17.068-96.155 20.098 19.152-45.963 27.716-7.186c89.417-23.182 204.972-23.183 294.393 0l27.716 7.186 19.152 45.963-96.155-20.098-2.882-17.068c-.485-2.873-2.591-5.206-5.4-5.981-51.098-14.101-128.159-14.101-179.255 0zm280.78 73.962l-87.605-17.521-2.957-17.507 95.913 20.047-5.351 14.981zM356.139 183.878c-.637-2.865-2.885-5.096-5.755-5.709l-51.079-10.918-6.431-41.886c-.562-3.66-3.71-6.362-7.413-6.362h-20v-9.82c0-4.142-3.357-7.5-7.5-7.5s-7.5 3.358-7.5 7.5v9.82h-73v-9.82c0-4.142-3.357-7.5-7.5-7.5s-7.5 3.358-7.5 7.5v9.82h-20c-3.702 0-6.852 2.702-7.413 6.362l-6.432 41.886-51.078 10.918c-2.87.613-5.118 2.844-5.755 5.709l-34.683 156.281c-.118.534-.178 1.079-.178 1.625v31.719c0 4.142 3.357 7.5 7.5 7.5h339.078c4.143 0 7.5-3.358 7.5-7.5v-31.719c0-.546-.06-1.091-.178-1.625l-34.683-156.281zm-270.755 7.952l51.428-10.993c3.047-.651 5.373-3.117 5.846-6.196l6.24-40.638h130.127l6.239 40.638c.473 3.079 2.799 5.545 5.846 6.196l51.429 10.993 31.615 142.454h-320.385l31.615-142.454zm40.816 157.454l-9.661 16.719h-11.401l9.661-16.719h11.401zm17.325 0h163.21l-9.661 16.719h-163.21l9.661-16.719zm-91.603 0h45.552l-9.661 16.719h-35.891v-16.719zm262.477 16.719l9.661-16.719h51.94v16.719h-61.601zM213.961 320.038c44.388 0 80.5-36.112 80.5-80.5s-36.112-80.5-80.5-80.5-80.5 36.112-80.5 80.5 36.112 80.5 80.5 80.5zm0-146c36.117 0 65.5 29.383 65.5 65.5s-29.383 65.5-65.5 65.5-65.5-29.383-65.5-65.5 29.383-65.5 65.5-65.5zM213.961 268.091c15.744 0 28.554-12.809 28.554-28.554s-12.81-28.554-28.554-28.554c-15.745 0-28.555 12.809-28.555 28.554s12.81 28.554 28.555 28.554zm0-42.108c7.474 0 13.554 6.08 13.554 13.554s-6.08 13.554-13.554 13.554-13.555-6.08-13.555-13.554c0-7.473 6.081-13.554 13.555-13.554z" class="active-path"/></g></svg>