<svg xmlns="http://www.w3.org/2000/svg" viewBox="0 0 512 512" enable-background="new 0 0 512 512"><path d="M437.019 74.98c-48.352-48.35-112.639-74.98-181.019-74.98s-132.667 26.63-181.019 74.98c-48.353 48.353-74.981 112.639-74.981 181.02s26.628 132.667 74.981 181.02c48.352 48.35 112.639 74.98 181.019 74.98s132.667-26.63 181.019-74.98c48.353-48.353 74.981-112.639 74.981-181.02s-26.628-132.667-74.981-181.02zm-346.298 346.298c-40.337-40.337-64.104-92.825-67.907-149.208l.003.006c6.114.209 12.36.782 18.674 1.721 45.254 6.722 90.795 31.043 128.232 68.48 37.437 37.438 61.757 82.978 68.48 128.233.933 6.274 1.505 12.484 1.715 18.563-54.387-3.718-107.713-26.312-149.197-67.795zm171.476 68.264c-.203-7.316-.857-14.778-1.976-22.304-7.42-49.942-33.969-99.912-74.759-140.702-40.79-40.79-90.759-67.339-140.703-74.759-7.565-1.124-15.065-1.781-22.416-1.979.194-7.475.738-14.89 1.622-22.229 7.932.26 15.992.99 24.066 2.189 54.632 8.115 109.029 36.895 153.172 81.037 44.141 44.14 72.921 98.538 81.037 153.17 1.193 8.034 1.917 16.05 2.182 23.939-7.382.899-14.799 1.443-22.225 1.638zm159.081-68.264c-32.656 32.654-72.648 53.605-114.72 62.859-.365-7.752-1.131-15.595-2.296-23.442-8.813-59.323-39.823-118.147-87.316-165.641-47.495-47.494-106.32-78.502-165.641-87.315-7.875-1.17-15.746-1.939-23.532-2.302l-.061.05c9.459-43.151 31.023-82.779 63.01-114.766 31.239-31.239 69.192-51.765 109.256-61.588.264 9.053 1.082 18.249 2.453 27.479 8.812 59.321 39.821 118.146 87.315 165.641 47.494 47.494 106.319 78.502 165.643 87.315 9.256 1.375 18.479 2.197 27.56 2.456l.1-.166c-10.027 41.076-31.109 78.759-61.771 109.42zm66.036-131.435c-9.393-.094-18.993-.859-28.654-2.294-54.634-8.116-109.032-36.895-153.173-81.037s-72.921-98.539-81.036-153.17c-1.429-9.619-2.196-19.177-2.294-28.525 7.394-1.073 14.83-1.792 22.281-2.157-.017 8.935.651 18.108 2.032 27.411 7.42 49.943 33.97 99.913 74.76 140.702 4.346 4.345 11.394 4.345 15.741 0 4.346-4.346 4.346-11.394 0-15.742-37.437-37.437-61.757-82.977-68.48-128.232-1.223-8.237-1.825-16.332-1.806-24.181 56.245 2.55 111.74 25.247 154.595 68.104 41.62 41.62 65.602 96.175 68.212 154.597-7.899.017-16.016-.58-24.29-1.809-6.079-.903-11.743 3.295-12.645 9.375-.904 6.081 3.294 11.741 9.374 12.644 9.194 1.366 18.264 2.05 27.1 2.05l.429-.008c-.364 7.497-1.087 14.925-2.146 22.272zM393.828 219.947c-2.927 0-5.799 1.181-7.869 3.262-2.081 2.069-3.261 4.941-3.261 7.868 0 2.928 1.18 5.799 3.261 7.869 2.07 2.071 4.942 3.261 7.869 3.261s5.799-1.19 7.869-3.261c2.07-2.071 3.261-4.941 3.261-7.869 0-2.927-1.191-5.799-3.261-7.868-2.07-2.081-4.942-3.262-7.869-3.262z"/></svg>