<svg xmlns="http://www.w3.org/2000/svg" viewBox="0 0 511.999 512" enable-background="new 0 0 511.999 512"><path d="M492.069 170.379l-230.163-168.448c-3.518-2.574-8.295-2.574-11.813 0l-230.162 168.448c-4.456 3.262-5.425 9.519-2.163 13.976l30.083 41.105c1.565 2.14 3.918 3.57 6.539 3.976 2.622.407 5.296-.246 7.437-1.813l9.078-6.644v281.02c0 5.522 4.478 10 10 10h350.718c5.522 0 10-4.478 10-10v-280.633l8.55 6.257c1.725 1.263 3.796 1.931 5.906 1.931.509 0 1.021-.039 1.53-.118 2.621-.405 4.974-1.836 6.539-3.976l30.083-41.105c3.263-4.458 2.294-10.714-2.162-13.976zm-70.446 282.618h-236.592c-5.522 0-10 4.478-10 10s4.478 10 10 10h236.592v19.003h-330.719v-277.77h234.182c5.522 0 10-4.478 10-10s-4.478-10-10-10h-217.626l148.54-108.715 165.623 121.214v246.268zm32.292-247.419l-16.385-11.992-.001-.001-175.623-128.531c-1.759-1.287-3.832-1.931-5.906-1.931s-4.148.644-5.906 1.931l-192.01 140.524-18.271-24.966 216.188-158.221 216.188 158.221-18.274 24.966zM370.92 202.28c-.13-.641-.33-1.271-.58-1.881-.25-.6-.56-1.18-.92-1.72-.36-.55-.78-1.06-1.24-1.52-1.86-1.86-4.44-2.931-7.07-2.931s-5.21 1.07-7.069 2.931c-.46.46-.88.97-1.24 1.52-.36.54-.67 1.12-.92 1.72-.25.61-.45 1.24-.57 1.881-.13.64-.2 1.3-.2 1.949 0 .65.07 1.311.2 1.95.12.639.32 1.27.57 1.88.25.601.56 1.181.92 1.721.36.55.78 1.059 1.24 1.52.46.46.97.88 1.52 1.24.54.359 1.12.67 1.73.92.6.25 1.229.45 1.87.57.64.13 1.3.199 1.949.199.65 0 1.311-.069 1.95-.199.641-.12 1.271-.32 1.87-.57.61-.25 1.19-.561 1.73-.92.55-.36 1.059-.78 1.52-1.24.46-.46.88-.97 1.24-1.52.36-.54.67-1.12.92-1.721.25-.609.45-1.24.58-1.88s.189-1.3.189-1.95c0-.649-.06-1.31-.189-1.949zM158.808 461.041c-.129-.641-.319-1.27-.569-1.87-.25-.601-.561-1.19-.921-1.73-.359-.54-.779-1.06-1.239-1.52-.46-.46-.971-.87-1.52-1.24-.54-.36-1.12-.67-1.73-.92-.601-.25-1.23-.44-1.87-.57-1.29-.26-2.62-.26-3.91 0-.63.13-1.26.32-1.87.57-.6.25-1.18.56-1.72.92-.55.36-1.061.78-1.52 1.24-.47.46-.88.98-1.25 1.52-.359.54-.67 1.13-.92 1.73-.25.6-.439 1.23-.569 1.87-.131.65-.19 1.3-.19 1.95 0 .659.059 1.31.19 1.96.13.64.319 1.27.569 1.869.25.601.561 1.181.92 1.73.37.54.78 1.05 1.25 1.52.46.461.971.881 1.52 1.24.54.36 1.12.67 1.72.92.61.25 1.24.44 1.87.57.65.13 1.31.2 1.96.2.65 0 1.309-.07 1.95-.2.64-.13 1.27-.32 1.87-.57.609-.25 1.189-.56 1.73-.92.55-.359 1.06-.779 1.52-1.24.46-.47.88-.979 1.239-1.52.36-.55.671-1.13.921-1.73.25-.6.439-1.229.569-1.869.13-.65.2-1.301.2-1.96 0-.65-.07-1.301-.2-1.95zM380.215 260.9c0-8.481-3.326-16.44-9.366-22.409-5.982-5.911-14.162-9.22-22.503-9.148-2.5.021-5.029.352-7.519.983l-.269.072c-18.426 4.71-36.604 11.011-54.091 18.747-9.92-2.353-20.151-3.544-30.466-3.544-5.777 0-11.605.379-17.326 1.127-4.407.58-8.812 1.391-13.139 2.417-1.126-.498-2.289-1.005-3.506-1.528-16.369-7.029-33.384-12.821-50.576-17.217l-.268-.072c-9.842-2.506-19.992-.252-27.846 6.192-7.852 6.442-12.045 15.954-11.506 26.09.545 10.347 1.577 20.807 3.067 31.091 1.33 9.188 3.056 18.435 5.135 27.534-3.101 7.941-5.259 16.2-6.427 24.601-.49 3.539-.738 7.11-.738 10.614 0 44.765 39.036 81.185 87.02 81.185h72.223c26.301 0 50.907-10.938 67.51-30.009 15.215-17.477 21.881-39.424 18.77-61.796-.661-4.757-1.654-9.533-2.954-14.209-.974-3.485-2.136-6.965-3.468-10.38 4.398-19.244 7.155-38.943 8.197-58.604.031-.585.046-1.161.046-1.737zm-20.019.622l-.002.034c-1.034 19.536-3.865 39.112-8.415 58.186-.495 2.079-.313 4.263.523 6.23 1.53 3.602 2.833 7.314 3.867 11.016 1.06 3.813 1.871 7.714 2.411 11.597 2.302 16.555-2.686 32.859-14.046 45.908-12.803 14.706-31.91 23.141-52.425 23.141h-72.223c-36.954 0-67.02-27.447-67.02-61.184 0-2.59.185-5.239.548-7.866 1.077-7.742 3.189-15.347 6.279-22.604.839-1.969 1.023-4.155.527-6.237-2.271-9.526-4.133-19.253-5.531-28.91-1.403-9.685-2.375-19.533-2.888-29.279-.198-3.72 1.34-7.209 4.221-9.573 2.11-1.732 4.674-2.64 7.313-2.64.899 0 1.808.105 2.711.32l.199.053c16.276 4.146 32.388 9.624 47.884 16.279 2.271.977 4.34 1.891 6.323 2.795 2.111.963 4.491 1.16 6.729.564 4.607-1.23 9.349-2.17 14.088-2.794 4.857-.635 9.813-.957 14.726-.957 9.794 0 19.487 1.262 28.813 3.751 2.238.594 4.614.399 6.722-.56 17.475-7.945 35.716-14.365 54.218-19.079l.186-.05c.871-.206 1.737-.314 2.607-.322h.13c2.989 0 5.941 1.226 8.115 3.374 2.209 2.183 3.425 5.089 3.425 8.184l-.015.623zM274.755 371.765c-4.827 0-8.755-3.927-8.755-8.754 0-5.522-4.477-10-10-10s-10 4.478-10 10v.365c0 4.827-3.927 8.755-8.754 8.755-5.523 0-10 4.478-10 10s4.477 10 10 10c7.26 0 13.898-2.707 18.964-7.162 5.01 4.238 11.484 6.796 18.545 6.796 5.522 0 10-4.478 10-10 0-5.523-4.478-10-10-10zM221.044 325.686l-14.854-6.806c-2.645-1.213-5.686-1.214-8.33 0l-14.855 6.806c-5.021 2.3-7.227 8.235-4.926 13.256 1.682 3.672 5.307 5.838 9.097 5.837 1.394 0 2.81-.292 4.159-.911l10.689-4.897 10.689 4.897c5.018 2.303 10.956.095 13.256-4.926 2.302-5.021.095-10.957-4.925-13.256zM328.995 325.685l-14.854-6.806c-2.645-1.213-5.685-1.213-8.33 0l-14.854 6.806c-5.021 2.3-7.227 8.235-4.926 13.256 2.301 5.023 8.236 7.23 13.256 4.926l10.689-4.897 10.689 4.897c1.35.619 2.766.911 4.159.911 3.79 0 7.415-2.166 9.097-5.837 2.301-5.021.096-10.956-4.926-13.256z"/></svg>