<svg xmlns="http://www.w3.org/2000/svg" viewBox="0 0 512 512" enable-background="new 0 0 512 512"><path d="M469.772 108.472h-59.929v-1.724c0-31-25.22-56.22-56.22-56.22s-56.22 25.22-56.22 56.22v1.724h-70.381c-23.174 0-42.027 18.854-42.027 42.027v47.483h-63.029c-15.036 0-28.401 9.005-34.048 22.941-.082.204-.158.411-.228.62l-36.361 110.139c-.33.196-.751.428-1.275.69l-.006.002c-2.079 1.038-5.962 2.618-12.654 4.253-21.898 5.347-37.193 24.828-37.193 47.377v52.039c0 17.424 14.175 31.6 31.599 31.6l44.58.001c4.707 25.209 26.86 44.356 53.414 44.356 26.553 0 48.706-19.147 53.414-44.355l157.223.003c4.708 25.207 26.86 44.352 53.413 44.352 26.552 0 48.704-19.144 53.413-44.351l28.311.001c21.671 0 36.231-14.561 36.231-36.231v-260.069c0-56.751-29.391-62.878-42.027-62.878zm-152.369-1.724c0-19.972 16.248-36.22 36.22-36.22 19.972 0 36.22 16.248 36.22 36.22v1.724h-72.44v-1.724zm-210.836 121.416c2.634-6.195 8.646-10.182 15.398-10.182h63.029v113.339h-112.484l34.057-103.157zm23.227 263.836c-18.941 0-34.351-15.409-34.351-34.351l.018-.699c.007-.357.009-.715.027-1.07l.013-.167c1.008-18.043 16.004-32.415 34.293-32.415 16.55 0 30.404 11.767 33.637 27.373l.014.06c.109.529.203 1.063.287 1.601l.016.089c.06.391.104.786.15 1.181l.068.537c.031.308.048.621.071.931l.062.811.021.846.023.921c.002 18.943-15.408 34.352-34.349 34.352zm264.05 0c-18.941 0-34.351-15.409-34.351-34.351 0-.447.017-.891.034-1.334l.011-.431c.017-.33.049-.655.075-.982l.058-.761.04-.318c.116-1.044.273-2.076.481-3.089l.021-.089c3.243-15.593 17.089-27.346 33.631-27.346 4.735 0 9.25.963 13.358 2.704 12.325 5.222 20.992 17.441 20.992 31.647 0 18.941-15.409 34.35-34.35 34.35zm81.724-44.351l-28.295-.001-.111-.528-.209-.997c-.111-.51-.228-1.018-.352-1.523l-.252-.982c-.136-.508-.281-1.012-.431-1.514l-.284-.935c-.167-.524-.346-1.043-.529-1.56l-.294-.832c-.222-.598-.459-1.189-.702-1.776l-.226-.561c-.331-.778-.679-1.547-1.044-2.306l-.142-.28c-.32-.654-.651-1.302-.996-1.942l-.392-.697c-.276-.494-.555-.986-.847-1.471l-.485-.782c-.278-.446-.561-.889-.851-1.327l-.542-.796c-.292-.423-.59-.841-.893-1.255l-.577-.776c-.315-.414-.638-.822-.964-1.226l-.586-.721c-.355-.425-.72-.841-1.087-1.255l-.544-.614c-.458-.501-.928-.99-1.405-1.473l-.305-.316c-.589-.588-1.192-1.163-1.808-1.724l-.401-.352c-.482-.431-.97-.858-1.468-1.272l-.664-.534c-.423-.34-.847-.678-1.279-1.006l-.768-.566c-.413-.302-.829-.6-1.251-.89l-.822-.554c-.421-.279-.847-.551-1.276-.819l-.845-.518c-.443-.265-.891-.52-1.342-.772l-.833-.463c-.49-.263-.987-.514-1.486-.762l-.743-.372c-.652-.312-1.313-.61-1.979-.896l-.305-.137c-.772-.327-1.554-.634-2.344-.926l-.681-.236c-.566-.2-1.133-.397-1.707-.579l-.908-.271c-.509-.151-1.019-.3-1.534-.437l-.995-.25c-.497-.122-.996-.239-1.498-.347l-1.037-.212c-.502-.098-1.007-.187-1.514-.271-.347-.057-.694-.115-1.043-.165-.524-.076-1.052-.14-1.581-.201l-1.006-.113c-.582-.056-1.169-.096-1.757-.134l-.859-.058c-.877-.042-1.759-.067-2.646-.067s-1.769.025-2.646.067l-.86.058c-.587.038-1.173.078-1.755.134l-1.008.114c-.528.061-1.055.125-1.578.201-.35.051-.699.108-1.047.166-.505.084-1.008.173-1.509.27l-1.043.213c-.499.108-.995.224-1.489.345l-1.004.252c-.51.135-1.015.282-1.519.432l-.924.276c-.563.178-1.118.371-1.673.567l-.716.249c-.786.29-1.564.596-2.332.921l-.378.169c-.641.277-1.277.562-1.905.862l-.787.394c-.482.241-.964.483-1.438.737l-.872.485c-.436.245-.871.492-1.3.748l-.88.54c-.415.259-.827.523-1.235.792l-.861.58c-.405.279-.804.565-1.201.855l-.816.601c-.411.312-.814.633-1.216.956l-.726.584c-.462.385-.914.782-1.363 1.181l-.503.441c-.607.553-1.201 1.119-1.782 1.699l-.432.448c-.431.44-.859.883-1.276 1.338l-.613.693c-.343.387-.684.775-1.016 1.172l-.637.785c-.308.382-.612.766-.91 1.156l-.624.838c-.286.39-.566.784-.841 1.182l-.588.865c-.273.41-.537.826-.798 1.244l-.533.86c-.27.449-.528.905-.784 1.363l-.451.802c-.308.57-.601 1.15-.888 1.732l-.247.488c-.359.746-.701 1.502-1.027 2.267l-.284.706c-.221.539-.439 1.08-.643 1.628l-.326.923c-.171.486-.339.973-.497 1.465l-.307 1.009c-.142.476-.279.953-.408 1.434l-.269 1.049c-.119.481-.23.965-.336 1.452-.077.353-.153.706-.223 1.061l-.105.501-157.194-.003-.108-.517-.214-1.02c-.109-.5-.223-.998-.346-1.493l-.26-1.013c-.132-.494-.273-.984-.419-1.472l-.297-.976c-.161-.504-.333-1.002-.508-1.499l-.316-.894c-.207-.558-.429-1.108-.655-1.657l-.274-.68c-.327-.767-.669-1.525-1.03-2.273l-.227-.447c-.294-.597-.594-1.19-.91-1.774l-.441-.784c-.26-.463-.521-.925-.794-1.379l-.528-.851c-.263-.421-.529-.839-.803-1.252l-.585-.859c-.276-.399-.558-.795-.844-1.187-.205-.28-.412-.56-.623-.836-.297-.39-.601-.774-.909-1.155l-.639-.787c-.331-.395-.671-.782-1.012-1.168l-.617-.697c-.412-.45-.836-.889-1.263-1.325l-.445-.461c-.58-.579-1.173-1.144-1.779-1.696l-.514-.451c-.445-.396-.893-.789-1.352-1.171l-.735-.591c-.398-.32-.798-.639-1.206-.948l-.822-.606c-.395-.288-.792-.573-1.195-.851l-.867-.583c-.406-.268-.815-.53-1.228-.788l-.887-.544c-.426-.255-.858-.501-1.292-.744l-.879-.488c-.471-.253-.949-.493-1.427-.732l-.798-.4c-.619-.296-1.247-.577-1.878-.851l-.403-.181c-.767-.324-1.544-.63-2.329-.92l-.729-.253c-.55-.194-1.102-.386-1.66-.563l-.932-.278c-.502-.149-1.004-.295-1.511-.43-.335-.089-.672-.171-1.009-.253-.493-.121-.987-.236-1.485-.344-.347-.075-.695-.146-1.045-.214-.5-.097-1.003-.187-1.508-.27l-1.047-.166c-.524-.076-1.051-.14-1.579-.201l-1.006-.114c-.583-.056-1.169-.096-1.757-.134l-.859-.058c-.877-.042-1.758-.067-2.646-.067-.887 0-1.768.025-2.646.067l-.86.058c-.587.038-1.173.078-1.755.134l-1.009.114c-.527.061-1.053.125-1.576.201l-1.05.166c-.504.083-1.005.172-1.504.269-.35.068-.7.139-1.047.214-.496.107-.989.222-1.481.343l-1.015.255c-.503.134-1.002.279-1.5.427l-.942.281c-.55.174-1.094.364-1.637.555l-.753.261c-.782.289-1.556.593-2.32.916l-.46.206c-.611.265-1.219.537-1.819.824l-.832.417c-.467.233-.933.468-1.392.714l-.904.503c-.424.238-.847.478-1.264.728l-.912.559c-.403.251-.803.508-1.199.769-.3.198-.598.398-.894.602-.392.27-.778.547-1.163.827-.285.208-.572.415-.853.629-.393.299-.779.606-1.164.915l-.775.624c-.433.36-.855.732-1.276 1.105l-.59.517c-.599.547-1.187 1.107-1.761 1.679l-.524.544c-.399.409-.796.819-1.182 1.24l-.661.747c-.326.369-.651.738-.966 1.116-.228.272-.45.55-.672.827-.295.367-.587.736-.873 1.111-.221.29-.437.582-.652.876-.275.376-.545.756-.811 1.14-.207.299-.413.599-.614.902-.263.396-.517.797-.77 1.199-.188.3-.377.598-.559.902-.259.431-.506.869-.753 1.307l-.481.855c-.29.538-.565 1.084-.837 1.632l-.297.586c-.356.74-.695 1.489-1.018 2.247l-.314.781c-.21.515-.419 1.03-.613 1.552l-.34.964c-.166.473-.33.946-.483 1.424-.11.343-.212.689-.315 1.035-.139.467-.274.935-.401 1.407l-.275 1.07c-.117.473-.226.949-.33 1.428-.078.36-.156.719-.227 1.082l-.103.49h-44.565c-6.396 0-11.599-5.203-11.599-11.6v-52.039c0-13.302 9.021-24.794 21.938-27.947 5.699-1.393 10.594-2.981 14.591-4.735h363.192c5.522 0 10-4.477 10-10 0-5.522-4.478-10-10-10h-214.927v-180.823c0-12.145 9.882-22.027 22.027-22.027h242.749c19.166 0 22.027 26.864 22.027 42.878v260.068h.001c0 14.123-10.17 16.231-16.231 16.231zM430.798 211.753c.001-13.128-9.22-24.136-21.523-26.907.066-.691.118-1.385.138-2.088v-.001c.229-8.137-2.811-15.872-8.558-21.783-5.845-6.011-14.008-9.458-22.398-9.458-10.138 0-19.167 4.933-24.82 12.529-5.649-7.596-14.686-12.529-24.847-12.529-8.315 0-16.422 3.402-22.241 9.336-5.779 5.892-8.875 13.641-8.717 21.817.014.733.064 1.458.129 2.179-12.298 2.775-21.513 13.78-21.513 26.905 0 11.107 6.602 20.695 16.084 25.064-6.68 8.266-10.578 18.726-10.578 29.785 0 26.116 21.247 47.363 47.363 47.363 8.602 0 17-2.351 24.306-6.721 7.306 4.37 15.704 6.721 24.306 6.721 26.116 0 47.363-21.247 47.363-47.363 0-11.06-3.898-21.519-10.578-29.785 9.483-4.369 16.084-13.957 16.084-25.064zm-52.341-40.236c3.021 0 5.958 1.239 8.059 3.399 1.949 2.005 2.98 4.589 2.905 7.278-.173 6.131-5.143 11.174-11.08 11.242-1.63-.007-3.191-.353-4.611-1.004l-.535-.253c-.898-.475-1.732-1.08-2.476-1.819-2.089-2.073-3.233-4.858-3.221-7.844.024-6.065 4.941-10.999 10.959-10.999zm-57.631 3.34c2.113-2.154 4.941-3.341 7.963-3.341 6.036 0 10.952 4.922 10.959 10.971.003 3.008-1.17 5.821-3.303 7.922-.727.717-1.54 1.308-2.409 1.777-.327.148-.646.307-.969.462-1.295.534-2.689.807-4.113.789-6.019-.099-11.01-5.102-11.127-11.153-.054-2.764 1.012-5.4 2.999-7.427zm-24.378 36.897c-.001-4.184 3.403-7.587 7.585-7.587 4.184 0 7.587 3.403 7.587 7.587 0 .859-.15 1.681-.414 2.452-.25.503-.491 1.011-.723 1.524-1.338 2.162-3.725 3.61-6.449 3.61-4.183 0-7.586-3.403-7.586-7.586zm81.481 82.213c-6.521 0-12.841-2.34-17.796-6.59-1.873-1.607-4.191-2.409-6.51-2.409-2.318 0-4.637.803-6.51 2.409-4.955 4.25-11.275 6.59-17.796 6.59-15.088 0-27.363-12.275-27.363-27.363 0-11.437 7.211-21.766 17.943-25.701 3.592-1.316 6.117-4.567 6.506-8.373.288-2.822 1.001-5.5 2.06-7.984.356-.677.69-1.367.99-2.075 2.657-5.007 6.81-9.053 11.853-11.581.435-.191.865-.392 1.291-.604 3.378-1.478 7.109-2.296 11.026-2.296 3.909 0 7.632.815 11.005 2.287.426.211.856.411 1.291.602 5.053 2.527 9.213 6.578 11.874 11.592.3.708.634 1.398.99 2.075 1.059 2.484 1.772 5.162 2.06 7.984.389 3.806 2.914 7.057 6.506 8.373 10.732 3.936 17.943 14.264 17.943 25.701 0 15.087-12.275 27.363-27.363 27.363zm25.284-74.627c-2.724 0-5.111-1.448-6.449-3.61-.232-.513-.474-1.021-.723-1.524-.264-.77-.414-1.593-.414-2.452 0-4.184 3.403-7.587 7.587-7.587 4.183 0 7.586 3.403 7.586 7.587-.001 4.182-3.404 7.586-7.587 7.586zM469.899 339.42c-.129-.64-.319-1.271-.569-1.87-.25-.61-.561-1.19-.92-1.73-.36-.55-.78-1.06-1.24-1.52-.46-.46-.97-.88-1.52-1.24-.54-.359-1.119-.67-1.73-.92-.601-.25-1.23-.439-1.87-.57-1.29-.26-2.62-.26-3.9 0-.64.131-1.27.32-1.88.57-.6.25-1.18.561-1.72.92-.55.36-1.06.78-1.52 1.24-.461.46-.881.97-1.25 1.52-.36.54-.671 1.12-.91 1.73-.25.6-.45 1.23-.57 1.87-.13.64-.2 1.3-.2 1.95 0 .649.07 1.31.2 1.96.12.63.32 1.26.57 1.87.25.6.56 1.18.92 1.72.359.55.779 1.06 1.24 1.52.46.46.97.88 1.52 1.25.54.36 1.12.66 1.72.91.61.25 1.24.45 1.88.57.641.13 1.301.2 1.95.2.65 0 1.311-.07 1.95-.2.64-.12 1.27-.32 1.87-.57.61-.25 1.19-.55 1.73-.91.551-.37 1.061-.79 1.52-1.25.46-.46.88-.97 1.24-1.52.359-.54.67-1.12.92-1.72.25-.61.439-1.24.569-1.87.131-.65.2-1.311.2-1.96 0-.65-.069-1.31-.2-1.95zM353.623 0c-5.522 0-10 4.477-10 10v16.74c0 5.523 4.478 10 10 10 5.523 0 10-4.478 10-10v-16.74c0-5.523-4.477-10-10-10zM311.494 38.883l-13.958-10.959c-4.347-3.412-10.631-2.653-14.041 1.69-3.41 4.344-2.653 10.63 1.69 14.04l13.958 10.959c1.832 1.438 4.008 2.135 6.169 2.135 2.965 0 5.899-1.313 7.872-3.824 3.411-4.345 2.654-10.631-1.69-14.041zM423.751 29.613c-3.41-4.344-9.695-5.101-14.041-1.69l-13.958 10.959c-4.344 3.41-5.101 9.696-1.69 14.041 1.972 2.514 4.907 3.825 7.872 3.825 2.16 0 4.337-.697 6.169-2.135l13.958-10.959c4.344-3.41 5.101-9.696 1.69-14.041z"/></svg>