<svg xmlns="http://www.w3.org/2000/svg" viewBox="0 0 512 512" enable-background="new 0 0 512 512"><path d="M322.783 146.615v-46.441c0-6.147-4.983-11.13-11.13-11.13h-8.348v-77.914c0-6.147-4.983-11.13-11.13-11.13h-72.348c-6.147 0-11.13 4.983-11.13 11.13v77.913h-8.348c-6.147 0-11.13 4.983-11.13 11.13v46.441c-39.087 15.586-66.783 53.816-66.783 98.395v255.86c0 6.147 4.983 11.13 11.13 11.13h244.87c6.147 0 11.13-4.983 11.13-11.13v-255.859c-.001-44.58-27.697-82.81-66.783-98.395zm-91.826-124.354h50.087v66.783h-50.087v-66.783zm-19.479 89.043h89.043v27.826h-89.043v-27.826zm155.826 378.435h-222.608v-244.729c0-46.108 37.511-83.619 83.618-83.619h55.372c46.108 0 83.618 37.511 83.618 83.619v244.729zM328.348 233.739h-144.696c-6.147 0-11.13 4.983-11.13 11.13v205.913c0 6.147 4.983 11.13 11.13 11.13h144.696c6.147 0 11.13-4.983 11.13-11.13v-69.95c0-6.147-4.983-11.13-11.13-11.13s-11.13 4.983-11.13 11.13v58.82h-122.435v-183.652h122.435v35.232c0 6.147 4.983 11.13 11.13 11.13s11.13-4.983 11.13-11.13v-46.362c0-6.148-4.983-11.131-11.13-11.131zM328.348 324.816c-6.147 0-11.13 4.983-11.13 11.13v1.113c0 6.147 4.983 11.13 11.13 11.13s11.13-4.983 11.13-11.13v-1.113c0-6.147-4.983-11.13-11.13-11.13zM244.805 351.157c-18.412 0-33.391 14.979-33.391 33.391s14.979 33.391 33.391 33.391 33.391-14.979 33.391-33.391c0-18.411-14.979-33.391-33.391-33.391zm0 44.522c-6.137 0-11.13-4.993-11.13-11.13s4.993-11.13 11.13-11.13c6.137 0 11.13 4.993 11.13 11.13s-4.992 11.13-11.13 11.13zM303.287 307.066c0-18.412-14.979-33.391-33.391-33.391s-33.391 14.979-33.391 33.391 14.979 33.391 33.391 33.391c18.411.001 33.391-14.979 33.391-33.391zm-33.392 11.131c-6.137 0-11.13-4.993-11.13-11.13s4.993-11.13 11.13-11.13c6.137 0 11.13 4.993 11.13 11.13s-4.991 11.13-11.13 11.13z"/></svg>