<svg xmlns="http://www.w3.org/2000/svg" viewBox="0 0 512.001 512.001" enable-background="new 0 0 512.001 512.001"><path d="M488.935 85.623c-13.304-10.704-32.065-20.222-55.768-28.288-47.473-16.157-110.393-25.055-177.169-25.055s-129.695 8.899-177.168 25.055c-23.702 8.066-42.464 17.584-55.768 28.288-15.302 12.314-23.062 25.9-23.062 40.379v111.922c0 14.48 7.76 28.066 23.063 40.379 13.304 10.704 32.065 20.222 55.768 28.288 45.095 15.348 104.132 24.139 167.169 24.982v40.125h-34.485c-3.82-20.186-21.591-35.498-42.871-35.498-24.059 0-43.631 19.573-43.631 43.63 0 10.46 3.71 20.364 10.274 28.13-6.564 7.766-10.274 17.671-10.274 28.13 0 24.058 19.572 43.63 43.631 43.63 21.28 0 39.051-15.313 42.871-35.498h88.971c3.82 20.186 21.591 35.498 42.871 35.498 24.059 0 43.631-19.573 43.631-43.63 0-10.46-3.71-20.364-10.274-28.13 6.564-7.766 10.274-17.671 10.274-28.13 0-24.058-19.572-43.63-43.631-43.63-21.28 0-39.051 15.313-42.871 35.498h-34.485v-40.125c63.037-.843 122.074-9.634 167.169-24.982 23.702-8.066 42.464-17.584 55.768-28.288 15.303-12.313 23.063-25.899 23.063-40.379v-111.922c-.003-14.479-7.763-28.065-23.066-40.379zm-179.156 306.076c2.748 0 5.375-1.131 7.264-3.127 1.889-1.996 2.873-4.681 2.721-7.425-.023-.436-.039-.874-.039-1.316 0-13.03 10.601-23.63 23.631-23.63s23.631 10.601 23.631 23.63c0 7.985-3.998 15.375-10.694 19.77-2.817 1.849-4.514 4.991-4.514 8.36 0 3.369 1.696 6.512 4.514 8.36 6.696 4.395 10.694 11.785 10.694 19.77 0 13.03-10.601 23.63-23.631 23.63s-23.631-10.601-23.631-23.63c0-.442.016-.88.039-1.316.152-2.744-.832-5.429-2.721-7.425-1.889-1.996-4.516-3.127-7.264-3.127h-107.56c-2.748 0-5.375 1.131-7.264 3.127-1.889 1.996-2.873 4.681-2.721 7.425.023.436.039.874.039 1.316 0 13.03-10.601 23.63-23.631 23.63s-23.631-10.601-23.631-23.63c0-7.985 3.998-15.375 10.694-19.77 2.817-1.849 4.514-4.991 4.514-8.36 0-3.369-1.696-6.512-4.514-8.36-6.696-4.395-10.694-11.785-10.694-19.77 0-13.03 10.601-23.63 23.631-23.63s23.631 10.601 23.631 23.63c0 .442-.016.88-.039 1.316-.152 2.744.832 5.429 2.721 7.425 1.889 1.996 4.516 3.127 7.264 3.127h107.56zm-53.78-80.052c-13.281 0-24.086-10.805-24.086-24.086s10.805-24.086 24.086-24.086 24.086 10.805 24.086 24.086-10.805 24.086-24.086 24.086zm235.999-73.723c0 31.64-79.799 66.557-198.481 72.755 4.16-6.726 6.568-14.645 6.568-23.119 0-3.151-.339-6.224-.97-9.19 38.811-2.545 74.863-8.336 104.935-16.917 5.31-1.516 8.388-7.049 6.872-12.36-1.516-5.311-7.047-8.388-12.36-6.872-30.861 8.806-68.501 14.549-109.101 16.685-8.092-9.436-20.086-15.431-33.462-15.431-13.446 0-25.498 6.058-33.591 15.581-27.519-1.313-53.67-4.251-77.765-8.784-5.422-1.023-10.655 2.551-11.676 7.978-1.021 5.428 2.551 10.655 7.979 11.677 22.461 4.226 46.596 7.117 71.891 8.647-.604 2.903-.923 5.908-.923 8.987 0 8.473 2.408 16.392 6.568 23.119-118.683-6.198-198.482-41.115-198.482-72.756v-74.112l.136.114c.944.824 1.917 1.643 2.926 2.455 1.304 1.049 2.677 2.084 4.085 3.11l.021.015c.746.543 1.507 1.083 2.282 1.62l.346.238c.729.501 1.468 1 2.222 1.495l.462.3c.761.495 1.531.989 2.317 1.478l.339.208c11.818 7.308 26.44 13.952 43.693 19.824 47.473 16.157 110.392 25.055 177.169 25.055s129.696-8.898 177.169-25.055c17.255-5.872 31.878-12.517 43.697-19.826l.335-.205c.787-.49 1.558-.984 2.32-1.48l.46-.298c.754-.495 1.494-.994 2.223-1.495l.346-.238c.775-.537 1.536-1.077 2.282-1.62l.021-.015c1.409-1.026 2.781-2.061 4.085-3.11 1.01-.813 1.982-1.632 2.926-2.455l.136-.114v74.111zm-427.748-70.354c8.711-3.982 20.626-8.555 36.464-12.996 43.033-12.066 98.182-18.71 155.285-18.71s112.252 6.645 155.284 18.71c15.839 4.44 27.755 9.013 36.465 12.996-41.384 18.443-109.127 32.155-191.749 32.155s-150.365-13.713-191.749-32.155zm427.685-40.102l-.032.363c-.044.459-.1.918-.177 1.379l-.013.091c-.084.487-.192.976-.312 1.464l-.093.361c-.114.432-.242.863-.384 1.295l-.082.251c-.144.42-.308.84-.478 1.261l-.258.613-.336.728c-.23.484-.472.966-.734 1.443l-.07.128c-4.161 7.51-12.016 14.079-19.816 19.209-10.358-5.967-26.97-13.588-52.466-20.737-44.741-12.544-101.806-19.451-160.684-19.451s-115.942 6.908-160.685 19.452c-25.495 7.148-42.106 14.769-52.465 20.737-7.799-5.129-15.654-11.699-19.816-19.209l-.07-.128c-.262-.478-.504-.96-.735-1.445l-.334-.725-.259-.614c-.171-.42-.334-.84-.478-1.26l-.083-.251c-.143-.432-.27-.864-.384-1.295l-.093-.361c-.121-.488-.228-.977-.312-1.464l-.013-.091c-.077-.46-.133-.92-.177-1.379l-.032-.363c-.038-.491-.064-.98-.064-1.468 0-34.87 96.921-73.722 235.999-73.722s235.999 38.852 235.999 73.722c0 .488-.026.977-.063 1.466zM411.107 97.502c-.13-.64-.319-1.27-.569-1.87-.25-.6-.561-1.18-.92-1.73-.36-.54-.78-1.06-1.24-1.52-.46-.46-.98-.88-1.521-1.24-.55-.36-1.13-.67-1.729-.92-.6-.25-1.23-.44-1.87-.57-1.29-.26-2.62-.26-3.91 0-.64.13-1.26.32-1.87.57-.6.25-1.18.56-1.72.92-.55.36-1.06.78-1.53 1.24-.46.46-.87.98-1.239 1.52-.36.55-.671 1.13-.921 1.73-.25.6-.439 1.23-.569 1.87-.13.65-.19 1.3-.19 1.95 0 .66.061 1.31.19 1.96.13.64.319 1.27.569 1.87s.561 1.18.921 1.73c.369.54.779 1.05 1.239 1.52.471.46.981.87 1.53 1.24.54.36 1.12.67 1.72.92.61.25 1.231.44 1.87.57.65.13 1.311.2 1.96.2.65 0 1.311-.07 1.95-.2.64-.13 1.271-.32 1.87-.57.6-.25 1.18-.56 1.729-.92.54-.37 1.061-.78 1.521-1.24.46-.47.88-.98 1.24-1.52.359-.55.67-1.13.92-1.73.25-.6.439-1.23.569-1.87.131-.65.2-1.3.2-1.96 0-.651-.069-1.301-.2-1.95zM371.054 82.289c-34.453-6.482-73.668-9.909-113.403-9.909-54.995 0-108.16 6.528-149.701 18.383-5.31 1.516-8.388 7.049-6.872 12.36 1.252 4.395 5.256 7.259 9.61 7.259.908 0 1.832-.124 2.749-.386 39.806-11.359 91.021-17.615 144.213-17.615 38.516 0 76.451 3.307 109.705 9.564 5.43 1.019 10.655-2.551 11.677-7.979 1.022-5.428-2.551-10.654-7.978-11.677zM120.499 250.812c-.13-.64-.32-1.27-.57-1.88-.25-.6-.56-1.18-.92-1.72-.37-.55-.78-1.06-1.25-1.52-.46-.46-.97-.88-1.52-1.25-.54-.36-1.12-.66-1.721-.91-.609-.25-1.239-.45-1.87-.57-1.29-.26-2.619-.26-3.909 0-.641.12-1.271.32-1.87.57-.61.25-1.19.55-1.73.91-.55.37-1.06.79-1.52 1.25-.46.46-.88.97-1.24 1.52-.36.54-.67 1.12-.92 1.72-.25.61-.44 1.24-.57 1.88-.13.64-.2 1.3-.2 1.95 0 .65.07 1.31.2 1.95.13.64.32 1.27.57 1.87.25.61.56 1.19.92 1.73.36.55.78 1.059 1.24 1.52.46.46.97.88 1.52 1.24.54.37 1.12.67 1.73.92.6.25 1.229.45 1.87.57.64.13 1.3.2 1.949.2.65 0 1.311-.07 1.96-.2.631-.12 1.261-.32 1.87-.57.601-.25 1.181-.55 1.721-.92.55-.36 1.06-.78 1.52-1.24.47-.461.88-.97 1.25-1.52.36-.54.67-1.12.92-1.73.25-.6.44-1.23.57-1.87.13-.64.189-1.3.189-1.95 0-.651-.06-1.31-.189-1.95z"/></svg>