<svg xmlns="http://www.w3.org/2000/svg" viewBox="0 0 512 512" enable-background="new 0 0 512 512"><path d="M463.452 301.391c-27.946-9.511-64.904-14.749-104.064-14.749-2.448 0-4.887.02-7.315.061-36.43.61-70.55 5.771-96.75 14.688-4.542 1.546-8.658 3.145-12.421 4.781v-159.798c0-66.968-54.482-121.451-121.451-121.451s-121.451 54.483-121.451 121.451v219.252c0 66.968 54.482 121.451 121.451 121.451 21.243 0 42.152-5.568 60.469-16.102 11.549-6.642 21.925-15.173 30.703-25.139 6.381 8.963 19.015 18.431 42.701 26.492 27.946 9.511 64.903 14.749 104.063 14.749s76.118-5.238 104.064-14.749c40.126-13.656 48.549-31.349 48.549-43.787v-83.363c0-12.438-8.423-30.131-48.548-43.787zm-236.675 43.787c0-.221.018-.442.039-.664l.061-.446.017-.099c.339-1.807 1.426-3.906 3.427-6.181l.038-.042c.303-.343.634-.691.979-1.042.231-.232.462-.465.709-.697l.291-.272c1.676-1.545 3.695-3.097 6.025-4.615l.113-.084c5.467-3.551 13.07-7.233 23.292-10.712 25.926-8.823 60.595-13.683 97.62-13.683 33.735.001 65.49 4.046 90.481 11.437l-214.01 39.437c-6.425-4.73-9.071-9.113-9.082-12.316v-.021zm-3.875-27.644c-7.709 5.906-12.006 11.907-14.184 17.475-.782 1.999-1.285 3.939-1.586 5.802v.001c-.073.451-.134.897-.183 1.338l-.023.21c-.041.396-.073.789-.096 1.176l-.017.258c-.024.467-.039.929-.039 1.383v75.359c-18.794 29.197-50.486 46.541-85.323 46.541-55.94 0-101.451-45.511-101.451-101.451v-99.626h20v54c0 5.523 4.478 10 10 10s10-4.477 10-10v-54h162.902v51.534zm0-71.534h-162.902v-99.626c0-33.884 27.566-61.451 61.451-61.451s61.451 27.567 61.451 61.451c0 5.523 4.478 10 10 10 5.523 0 10-4.477 10-10 0-44.912-36.539-81.451-81.451-81.451-44.912 0-81.451 36.539-81.451 81.451v99.626h-20v-99.626c0-55.94 45.511-101.451 101.451-101.451s101.451 45.511 101.451 101.451v99.626zm269.098 182.541c0 5.971-9.164 16.063-34.992 24.854-25.926 8.823-60.595 13.683-97.62 13.683-37.025 0-71.694-4.859-97.62-13.683-25.828-8.79-34.992-18.882-34.992-24.854v-5.123l.001-.014v-47.819c7.004 4.66 16.29 9.209 28.547 13.38 27.946 9.511 64.904 14.749 104.064 14.749s76.118-5.238 104.064-14.749c12.257-4.172 21.544-8.72 28.548-13.381v52.957zm-34.992-58.51c-25.926 8.823-60.594 13.683-97.62 13.683-34.22 0-66.41-4.159-91.561-11.753l214.52-39.531c6.85 4.897 9.653 9.451 9.653 12.748 0 5.971-9.164 16.063-34.992 24.853zM57.069 352.62c-.46-.46-.969-.88-1.519-1.24-.54-.36-1.12-.67-1.73-.92-.6-.25-1.229-.44-1.869-.57-1.29-.26-2.62-.26-3.9 0-.64.13-1.27.32-1.88.57-.601.25-1.18.56-1.72.92-.551.36-1.061.78-1.521 1.24-.46.46-.88.97-1.24 1.52-.37.54-.67 1.12-.92 1.73-.25.6-.45 1.23-.569 1.87-.131.64-.2 1.3-.2 1.95 0 .66.069 1.31.2 1.96.119.64.319 1.27.569 1.87.25.6.55 1.18.92 1.73.36.54.78 1.05 1.24 1.52.46.46.97.87 1.521 1.24.54.36 1.119.67 1.72.92.61.25 1.24.44 1.88.57.64.13 1.3.19 1.95.19.649 0 1.31-.06 1.95-.19s1.27-.32 1.869-.57c.61-.25 1.19-.56 1.73-.92.55-.37 1.06-.78 1.52-1.24.461-.47.881-.98 1.24-1.52.36-.55.67-1.13.92-1.73.25-.6.45-1.23.58-1.87.13-.65.19-1.3.19-1.96 0-2.63-1.07-5.21-2.931-7.07z"/></svg>